# xmcd
#
# Track frame offsets:
# 150
# 21908
# 42375
# 56665
# 74056
# 89551
# 103494
# 121258
# 133289
# 153125
# 173214
#
# Disc length: 2437 seconds
#
#
# Revision: 0
# Processed by: cddbd v1.5PL3 Copyright (c) Steve Scherf et al.
# Submitted via: FreeRIP 2.53 
#
DISCID=a409830b
DTITLE=Wariner, Steve - The Hits Collection
DYEAR=1900
DGENRE=
TTITLE0=Holes In The Floor Of Heaven
TTITLE1=Two Teardrops
TTITLE2=Katie Wants A Fast One
TTITLE3=Been There (duet with Clint Black)
TTITLE4=I'm Already Taken
TTITLE5=Every Little Whisper
TTITLE6=Faith In You
TTITLE7=Hands Of Time
TTITLE8=Turn In The Road
TTITLE9=What If I Said
TTITLE10=Burnin' The Roadhouse Down
EXTD=
EXTT0=
EXTT1=
EXTT2=
EXTT3=
EXTT4=
EXTT5=
EXTT6=
EXTT7=
EXTT8=
EXTT9=
EXTT10=
PLAYORDER=
